<svg xmlns="http://www.w3.org/2000/svg" version="1.1" xmlns:xlink="http://www.w3.org/1999/xlink" xmlns:svgjs="http://svgjs.com/svgjs" width="1440" height="560" preserveAspectRatio="none" viewBox="0 0 1440 560">
    <g mask="url(&quot;#SvgjsMask1000&quot;)" fill="none">
        <rect width="1440" height="560" x="0" y="0" fill="#0e2a47"></rect>
        <path d="M1281.23 340.17 a51.5 51.5 0 1 0 103 0 a51.5 51.5 0 1 0 -103 0z" fill="#037b0b"></path>
        <path d="M266.49 86.15a17.64 17.64 0 1 0 5.8 34.8z" stroke="#e73635"></path>
        <path d="M1137.05 247.22 a47.87 47.87 0 1 0 95.74 0 a47.87 47.87 0 1 0 -95.74 0z" stroke="#e73635"></path>
        <path d="M1422.73 361.79L1452.57 361.79L1452.57 391.63L1422.73 391.63z" fill="#037b0b"></path>
        <path d="M1095.6 408.76L1133.86 408.76L1133.86 409.11L1095.6 409.11z" fill="#e73635"></path>
        <path d="M177.35 527.21L186.52 527.21L186.52 536.38L177.35 536.38z" fill="#037b0b"></path>
        <path d="M1361.96 174.8a32.22 32.22 0 1 0 58.76-26.46z" stroke="#d3b714"></path>
        <path d="M1315.58 129.54L1340.66 129.54L1340.66 184.89L1315.58 184.89z" fill="#d3b714"></path>
        <path d="M748.39 255.48L754.97 255.48L754.97 262.06L748.39 262.06z" stroke="#e73635"></path>
        <path d="M1221.61 494.24L1241.96 494.24L1241.96 547.06L1221.61 547.06z" stroke="#d3b714"></path>
        <path d="M1026.2 517.62L1040.78 517.62L1040.78 525.02L1026.2 525.02z" fill="#037b0b"></path>
        <path d="M398.73 284.12L414.14 284.12L414.14 299.53L398.73 299.53z" fill="#037b0b"></path>
        <path d="M597.7 6.31L603.77 6.31L603.77 12.38L597.7 12.38z" fill="#d3b714"></path>
        <path d="M983.98 515.37L1009.05 515.37L1009.05 563.25L983.98 563.25z" fill="#e73635"></path>
        <path d="M261.48 387.96a42.57 42.57 0 1 0 73.99 42.13z" stroke="#e73635"></path>
        <path d="M724.33 451.5 a33.39 33.39 0 1 0 66.78 0 a33.39 33.39 0 1 0 -66.78 0z" stroke="#d3b714"></path>
        <path d="M984.62 101.51a21.1 21.1 0 1 0-38.66-16.92z" fill="#e73635"></path>
        <path d="M1418.84 8.78L1443.57 8.78L1443.57 41.08L1418.84 41.08z" stroke="#037b0b"></path>
        <path d="M876.09 463.24L924.39 463.24L924.39 511.54L876.09 511.54z" fill="#d3b714"></path>
        <path d="M127.48 207.09L157.86 207.09L157.86 237.47L127.48 237.47z" stroke="#d3b714"></path>
        <path d="M473.04 472.6 a35.08 35.08 0 1 0 70.16 0 a35.08 35.08 0 1 0 -70.16 0z" stroke="#d3b714"></path>
        <path d="M45.05 148.9a45.14 45.14 0 1 0-69.39-57.75z" stroke="#e73635"></path>
        <path d="M299.07 187.21 a45.7 45.7 0 1 0 91.4 0 a45.7 45.7 0 1 0 -91.4 0z" stroke="#e73635"></path>
        <path d="M1153.89 273.82 a54.43 54.43 0 1 0 108.86 0 a54.43 54.43 0 1 0 -108.86 0z" stroke="#037b0b"></path>
        <path d="M392.13 274.4L412.91 274.4L412.91 295.18L392.13 295.18z" stroke="#e73635"></path>
        <path d="M905.18 477.17 a5.81 5.81 0 1 0 11.62 0 a5.81 5.81 0 1 0 -11.62 0z" fill="#e73635"></path>
        <path d="M846.23 496.09 a11.81 11.81 0 1 0 23.62 0 a11.81 11.81 0 1 0 -23.62 0z" stroke="#d3b714"></path>
        <path d="M134.12 499.07a53.68 53.68 0 1 0 72.46 79.23z" stroke="#037b0b"></path>
        <path d="M312.03 73.36 a47.22 47.22 0 1 0 94.44 0 a47.22 47.22 0 1 0 -94.44 0z" fill="#e73635"></path>
        <path d="M980.38 119.05a31.47 31.47 0 1 0-58.06 24.31z" stroke="#037b0b"></path>
        <path d="M223.02 540.28 a7.38 7.38 0 1 0 14.76 0 a7.38 7.38 0 1 0 -14.76 0z" fill="#037b0b"></path>
        <path d="M1332.38 227.02L1371.76 227.02L1371.76 268.16L1332.38 268.16z" stroke="#e73635"></path>
        <path d="M360.75 534.63L375.7 534.63L375.7 549.58L360.75 549.58z" fill="#e73635"></path>
    </g>
    <defs>
        <mask id="SvgjsMask1000">
            <rect width="1440" height="560" fill="#ffffff"></rect>
        </mask>
    </defs>
</svg>