<svg xmlns="http://www.w3.org/2000/svg" version="1.1" xmlns:xlink="http://www.w3.org/1999/xlink" xmlns:svgjs="http://svgjs.com/svgjs" width="1440" height="560" preserveAspectRatio="none" viewBox="0 0 1440 560">
    <g mask="url(&quot;#SvgjsMask1307&quot;)" fill="none">
        <rect width="1440" height="560" x="0" y="0" fill="rgba(7, 31, 55, 1)"></rect>
        <path d="M404.18 168.15L419.8 168.15L419.8 201.34L404.18 201.34z" fill="rgba(15, 226, 14, 1)"></path>
        <path d="M749.39 41.42 a1.55 1.55 0 1 0 3.1 0 a1.55 1.55 0 1 0 -3.1 0z" fill="#e73635"></path>
        <path d="M347.78 115.49a27.05 27.05 0 1 0 45.5 29.26z" stroke="rgba(3, 52, 226, 1)"></path>
        <path d="M1435.87 390.94a54.5 54.5 0 1 0-76.99-77.17z" fill="rgba(15, 226, 14, 1)"></path>
        <path d="M328.08 467.17 a7.17 7.17 0 1 0 14.34 0 a7.17 7.17 0 1 0 -14.34 0z" stroke="#d3b714"></path>
        <path d="M27.96 54.71 a51.76 51.76 0 1 0 103.52 0 a51.76 51.76 0 1 0 -103.52 0z" fill="rgba(15, 226, 14, 1)"></path>
        <path d="M1070.44 261.86a0.6 0.6 0 1 0 0.54 1.07z" fill="#e73635"></path>
        <path d="M732.99 439.08 a4.46 4.46 0 1 0 8.92 0 a4.46 4.46 0 1 0 -8.92 0z" fill="rgba(3, 52, 226, 1)"></path>
        <path d="M322.41 281.71a23.62 23.62 0 1 0-0.31 47.24z" fill="rgba(3, 52, 226, 1)"></path>
        <path d="M134.36 476.08a3.18 3.18 0 1 0 2.72 5.75z" fill="#e73635"></path>
        <path d="M177.69 148.2 a34.14 34.14 0 1 0 68.28 0 a34.14 34.14 0 1 0 -68.28 0z" stroke="rgba(3, 52, 226, 1)"></path>
        <path d="M1355.23 407.74L1358.3 407.74L1358.3 410.81L1355.23 410.81z" fill="#e73635"></path>
        <path d="M611.5 527.81a7.44 7.44 0 1 0 6.2 13.52z" stroke="#d3b714"></path>
        <path d="M961.29 532.94L969.91 532.94L969.91 581.61L961.29 581.61z" fill="#d3b714"></path>
        <path d="M700.29 393.61 a6.22 6.22 0 1 0 12.44 0 a6.22 6.22 0 1 0 -12.44 0z" fill="#d3b714"></path>
        <path d="M317.3 162.6L322.37 162.6L322.37 167.67L317.3 167.67z" fill="rgba(15, 226, 14, 1)"></path>
        <path d="M409.94 457.25 a50.28 50.28 0 1 0 100.56 0 a50.28 50.28 0 1 0 -100.56 0z" stroke="#e73635"></path>
        <path d="M113.05 163.21a20.41 20.41 0 1 0-40.17 7.21z" fill="#d3b714"></path>
        <path d="M430.45 22.44L443.58 22.44L443.58 23.16L430.45 23.16z" fill="#e73635"></path>
        <path d="M995.19 285.58L1037.05 285.58L1037.05 327.44L995.19 327.44z" stroke="rgba(15, 226, 14, 1)"></path>
        <path d="M540.34 544.15L566.92 544.15L566.92 544.33L540.34 544.33z" stroke="#d3b714"></path>
        <path d="M652.22 548.95 a2.14 2.14 0 1 0 4.28 0 a2.14 2.14 0 1 0 -4.28 0z" fill="rgba(3, 52, 226, 1)"></path>
        <path d="M471.54 382.64L483.27 382.64L483.27 394.37L471.54 394.37z" stroke="#e73635"></path>
        <path d="M756.27 31.89 a3.36 3.36 0 1 0 6.72 0 a3.36 3.36 0 1 0 -6.72 0z" fill="#e73635"></path>
        <path d="M1413.89 492.39L1432.11 492.39L1432.11 510.61L1413.89 510.61z" fill="rgba(15, 226, 14, 1)"></path>
        <path d="M754.98 4.42L775.4 4.42L775.4 14.12L754.98 14.12z" fill="rgba(15, 226, 14, 1)"></path>
        <path d="M389.51 335.33 a26.83 26.83 0 1 0 53.66 0 a26.83 26.83 0 1 0 -53.66 0z" fill="#e73635"></path>
        <path d="M507.41 9.72L552.53 9.72L552.53 9.96L507.41 9.96z" stroke="#e73635"></path>
        <path d="M815.39 525.39L837.21 525.39L837.21 544.44L815.39 544.44z" fill="#e73635"></path>
        <path d="M586.44 153.47L629.85 153.47L629.85 196.88L586.44 196.88z" stroke="#e73635"></path>
        <path d="M1322.76 26.76L1350.86 26.76L1350.86 81.47L1322.76 81.47z" stroke="#d3b714"></path>
        <path d="M40.02 2.66L87.2 2.66L87.2 49.84L40.02 49.84z" fill="#e73635"></path>
        <path d="M643 398.36L662.47 398.36L662.47 448.11L643 448.11z" fill="rgba(15, 226, 14, 1)"></path>
    </g>
    <defs>
        <mask id="SvgjsMask1307">
            <rect width="1440" height="560" fill="#ffffff"></rect>
        </mask>
    </defs>
</svg>